custom-analysis
version=1
nRows=4
nColumns=98
inDegrees=no

This file contains tibia displacement and acting force.

Units are S.I. units (seconds, meters, Newtons, ...)
Angles are in degrees.

endheader
time	APT	SIT	knee_angle	aACL_R_force	pACL_R_force	aPCL_R_force	pPCL_R_force	aMCL_R_force	mMCL_R_force	pMCL_R_force	aLCL_R_force	mLCL_R_force	pLCL_R_force	aPCL_L_force	pPCL_L_force	aMCL_L_force	aLCL_L_force	aACL_R_length	pACL_R_length	aPCL_R_length	pPCL_R_length	aMCL_R_length	mMCL_R_length	pMCL_R_length	aLCL_R_length	mLCL_R_length	pLCL_R_length	aPCL_L_length	pPCL_L_length	aMCL_L_length	aLCL_L_length	aACL_R_strain	pACL_R_strain	aPCL_R_strain	pPCL_R_strain	aMCL_R_strain	mMCL_R_strain	pMCL_R_strain	aLCL_R_strain	mLCL_R_strain	pLCL_R_strain	aPCL_L_strain	pPCL_L_strain	aMCL_L_strain	aLCL_L_strain	femur_lat_meniscii_r.femur_lat_r.force.X	femur_lat_meniscii_r.femur_lat_r.force.Y	femur_lat_meniscii_r.femur_lat_r.force.Z	femur_lat_meniscii_r.femur_lat_r.torque.X	femur_lat_meniscii_r.femur_lat_r.torque.Y	femur_lat_meniscii_r.femur_lat_r.torque.Z	femur_lat_meniscii_r.meniscus_lat_r.force.X	femur_lat_meniscii_r.meniscus_lat_r.force.Y	femur_lat_meniscii_r.meniscus_lat_r.force.Z	femur_lat_meniscii_r.meniscus_lat_r.torque.X	femur_lat_meniscii_r.meniscus_lat_r.torque.Y	femur_lat_meniscii_r.meniscus_lat_r.torque.Z	femur_med_meniscii_r.femur_med_r.force.X	femur_med_meniscii_r.femur_med_r.force.Y	femur_med_meniscii_r.femur_med_r.force.Z	femur_med_meniscii_r.femur_med_r.torque.X	femur_med_meniscii_r.femur_med_r.torque.Y	femur_med_meniscii_r.femur_med_r.torque.Z	femur_med_meniscii_r.meniscus_med_r.force.X	femur_med_meniscii_r.meniscus_med_r.force.Y	femur_med_meniscii_r.meniscus_med_r.force.Z	femur_med_meniscii_r.meniscus_med_r.torque.X	femur_med_meniscii_r.meniscus_med_r.torque.Y	femur_med_meniscii_r.meniscus_med_r.torque.Z	femur_med_tibia_r.tibia_upper_r.force.X	femur_med_tibia_r.tibia_upper_r.force.Y	femur_med_tibia_r.tibia_upper_r.force.Z	femur_med_tibia_r.tibia_upper_r.torque.X	femur_med_tibia_r.tibia_upper_r.torque.Y	femur_med_tibia_r.tibia_upper_r.torque.Z	femur_med_tibia_r.femur_med_r.force.X	femur_med_tibia_r.femur_med_r.force.Y	femur_med_tibia_r.femur_med_r.force.Z	femur_med_tibia_r.femur_med_r.torque.X	femur_med_tibia_r.femur_med_r.torque.Y	femur_med_tibia_r.femur_med_r.torque.Z	femur_lat_tibia_r.tibia_upper_r.force.X	femur_lat_tibia_r.tibia_upper_r.force.Y	femur_lat_tibia_r.tibia_upper_r.force.Z	femur_lat_tibia_r.tibia_upper_r.torque.X	femur_lat_tibia_r.tibia_upper_r.torque.Y	femur_lat_tibia_r.tibia_upper_r.torque.Z	femur_lat_tibia_r.femur_lat_r.force.X	femur_lat_tibia_r.femur_lat_r.force.Y	femur_lat_tibia_r.femur_lat_r.force.Z	femur_lat_tibia_r.femur_lat_r.torque.X	femur_lat_tibia_r.femur_lat_r.torque.Y	femur_lat_tibia_r.femur_lat_r.torque.Z	femur_lat_meniscii_force_r	femur_med_meniscii_force_r	femur_lat_tibia_force_r	femur_med_tibia_force_r
      0.74123363	      0.00517970	      0.00009545	     80.00011296	     78.39149653	     27.69561430	    599.01160810	    244.30943662	     14.43089978	      2.11163505	      0.00000000	      0.00000000	      0.00000000	      0.00000000	      0.00000000	      0.00000000	      0.00000001	      0.00000000	      0.03417409	      0.02657763	      0.03518724	      0.03178674	      0.06278827	      0.06076714	      0.05697988	      0.04903591	      0.04347321	      0.03800833	      0.01525851	      0.01651186	      0.06550154	      0.04489616	      0.10219447	      0.06061505	      0.13159353	      0.06353567	      0.04600044	      0.01628338	     -0.02976641	     -0.12400203	     -0.22808427	     -0.27385610	      0.00000079	     -0.32847694	      0.00000060	     -0.00000086	    230.70978033	     61.61679820	     47.45180578	    -20.78436855	      5.77247081	     93.94016508	   -230.70978033	    -61.61679820	    -47.45180578	      2.20166056	     -8.33393862	     -0.26529120	    106.48962220	    -35.25884801	    -14.91255758	      5.34325843	     -2.04784613	     43.03080097	   -106.48962220	     35.25884801	     14.91255758	      0.41044144	      1.88165903	     -1.55106905	   -464.43380961	    -47.70868598	     63.97269292	     -1.01881425	      7.41352968	     -1.73832545	    464.43380961	     47.70868598	    -63.97269292	     26.78086955	     -8.16773178	    188.20519050	    -42.47793738	    -17.19223661	    -12.88035155	      0.61523157	     -1.63471635	      0.15271996	     42.47793738	     17.19223661	     12.88035155	     -5.65680147	      1.04873683	     17.25595000	    243.46520580	    113.16187685	     47.60096238	    471.24026533
      0.74542706	      0.00517888	      0.00009629	     80.00011296	     77.53825153	     26.74258242	    597.77634289	    241.23736721	     12.10989977	     -0.23983987	      0.00000000	      0.00000000	      0.00000000	      0.00000000	      0.00000000	      0.00000000	      0.00000001	      0.00000000	      0.03417304	      0.02657674	      0.03518690	      0.03178631	      0.06278644	      0.06076534	      0.05697814	      0.04903653	      0.04347386	      0.03800904	      0.01525851	      0.01651186	      0.06550154	      0.04489616	      0.10216053	      0.06057932	      0.13158273	      0.06352137	      0.04596999	      0.01625335	     -0.02979595	     -0.12399101	     -0.22807285	     -0.27384265	      0.00000079	     -0.32847694	      0.00000060	     -0.00000086	    233.08773494	     61.67306771	     47.21804454	    -20.68961312	      5.82253830	     94.91530052	   -233.08773494	    -61.67306771	    -47.21804454	      2.20033979	     -8.39006306	     -0.29109460	    107.94257856	    -34.99144084	    -14.89711180	      5.34168019	     -2.07239837	     43.60976883	   -107.94257856	     34.99144084	     14.89711180	      0.40736085	      1.89811072	     -1.54356846	   -470.03089501	    -48.39671475	     64.70404523	     -1.03231469	      7.49931382	     -1.75788984	    470.03089501	     48.39671475	    -64.70404523	     27.08950229	     -8.26278796	    190.47458486	    -42.69990193	    -17.22303394	    -12.88569872	      0.61607815	     -1.64068629	      0.15113765	     42.69990193	     17.22303394	     12.88569872	     -5.65963011	      1.05342379	     17.34683593	    245.68883408	    114.44616699	     47.81166964	    476.92546350
      0.74904045	      0.00517786	      0.00009534	     80.00011296	     79.06258202	     28.50727576	    600.39798073	    247.45880228	     16.69502913	      4.43278185	      0.00000000	      0.00000000	      0.00000000	      0.00000000	      0.00000000	      0.00000000	      0.00000001	      0.00000000	      0.03417227	      0.02657608	      0.03518852	      0.03178788	      0.06278660	      0.06076562	      0.05697857	      0.04903888	      0.04347627	      0.03801158	      0.01525851	      0.01651186	      0.06550154	      0.04489616	      0.10213572	      0.06055316	      0.13163465	      0.06357381	      0.04597258	      0.01625797	     -0.02978871	     -0.12394911	     -0.22803002	     -0.27379401	      0.00000079	     -0.32847694	      0.00000060	     -0.00000086	    228.08500089	     61.42205992	     47.76065182	    -20.90643895	      5.71727123	     92.86390542	   -228.08500089	    -61.42205992	    -47.76065182	      2.19932746	     -8.27178782	     -0.24131670	    105.26592621	    -35.47516155	    -14.79836044	      5.29340406	     -2.02657613	     42.54295348	   -105.26592621	     35.47516155	     14.79836044	      0.41375356	      1.86443407	     -1.55724759	   -464.00997138	    -47.64941991	     63.88034261	     -1.01769626	      7.40945282	     -1.73705031	    464.00997138	     47.64941991	    -63.88034261	     26.74221875	     -8.16144623	    188.03227680	    -41.53177807	    -16.87157117	    -12.67702673	      0.60413304	     -1.60129929	      0.15164274	     41.53177807	     16.87157117	     12.67702673	     -5.56644804	      1.02629132	     16.87088612	    240.99069887	    112.06423952	     46.58589390	    470.80401329
      0.75265385	      0.00517713	      0.00009461	     80.00011296	     76.61157424	     25.70771594	    596.83926929	    238.03699488	      9.38419482	     -3.01661115	      0.00000000	      0.00000000	      0.00000000	      0.00000000	      0.00000000	      0.00000000	      0.00000001	      0.00000000	      0.03417274	      0.02657686	      0.03518950	      0.03178873	      0.06278642	      0.06076547	      0.05697842	      0.04904067	      0.04347806	      0.03801340	      0.01525851	      0.01651186	      0.06550154	      0.04489616	      0.10215087	      0.06058409	      0.13166622	      0.06360235	      0.04596967	      0.01625546	     -0.02979128	     -0.12391709	     -0.22799813	     -0.27375923	      0.00000079	     -0.32847694	      0.00000060	     -0.00000086	    235.56226659	     61.67971684	     46.74646301	    -20.49635288	      5.87154129	     95.92978715	   -235.56226659	    -61.67971684	    -46.74646301	      2.19495005	     -8.43844528	     -0.31943386	    109.30503163	    -34.63502098	    -14.98157687	      5.38185867	     -2.09588523	     44.15135810	   -109.30503163	     34.63502098	     14.98157687	      0.40290006	      1.91694620	     -1.53229345	   -468.05424180	    -48.05818080	     63.96318070	     -1.02267462	      7.45557878	     -1.75291053	    468.05424180	     48.05818080	    -63.96318070	     26.78237337	     -8.22703723	    189.67135431	    -40.88394069	    -16.42733205	    -12.27154994	      0.58731206	     -1.56782133	      0.14182873	     40.88394069	     16.42733205	     12.27154994	     -5.39038955	      1.00754565	     16.61013583	    247.94999640	    115.63573091	     45.73778288	    474.84276397
